<svg width="44" height="44" viewBox="0 0 44 44" fill="none" xmlns="http://www.w3.org/2000/svg">
<rect width="44" height="44" rx="22" fill="#D6D6D6"/>
<path d="M31.5899 18.0144C29.4698 15.8335 26.0422 15.8248 23.9221 17.9889L21.9986 19.9475L20.0837 17.972C17.9636 15.7911 14.536 15.7824 12.4159 17.9465C10.2958 20.1105 10.2958 23.6338 12.4073 25.8064C14.5274 27.9873 17.955 27.9959 20.0751 25.8319L21.9986 23.873L23.9303 21.923L25.8366 19.9557C26.8965 18.878 28.6148 18.878 29.6747 19.973C30.7091 21.0334 30.7345 22.7439 29.7432 23.8302L27.8455 25.7203L29.8031 27.6703L31.7008 25.7799C33.701 23.599 33.6669 20.1612 31.5899 18.0144ZM18.1468 23.8655C17.0863 24.9407 15.3672 24.9407 14.307 23.8483C13.2551 22.7644 13.2551 21.0062 14.307 19.922C15.3676 18.8467 17.0866 18.8467 18.1468 19.9392L20.0624 21.9109L18.1468 23.8655Z" fill="black" stroke="black" stroke-width="0.0223501"/>
</svg>
